<svg width="130" height="31" viewBox="0 0 130 31" fill="none" xmlns="http://www.w3.org/2000/svg">
    <rect width="30.7231" height="30.7231" rx="8.9418" fill="#EEEEEE"/>
    <path fill-rule="evenodd" clip-rule="evenodd" d="M7.3246 16.54C6.89179 16.3389 6.8918 15.6555 7.32463 15.4545C10.4622 13.9971 12.9977 11.4619 14.4554 8.32455C14.6565 7.89181 15.3397 7.89182 15.5407 8.32456C16.9984 11.4619 19.5337 13.997 22.6711 15.4544C23.1039 15.6554 23.1039 16.3388 22.6711 16.5399C19.5334 17.9974 16.998 20.5328 15.5405 23.6703C15.3394 24.1031 14.6561 24.1031 14.455 23.6703C12.9974 20.5328 10.4621 17.9975 7.3246 16.54Z" fill="#0C0012"/>
    <path fill-rule="evenodd" clip-rule="evenodd" d="M19.4028 9.24411C19.1483 9.10839 19.1483 8.67982 19.4028 8.54412C20.4018 8.01157 21.2234 7.19004 21.7561 6.19112C21.8918 5.93662 22.3202 5.93662 22.4559 6.19112C22.9886 7.18998 23.8101 8.01146 24.809 8.54401C25.0635 8.67973 25.0635 9.10829 24.809 9.244C23.81 9.77661 22.9884 10.5982 22.4558 11.5972C22.3201 11.8517 21.8915 11.8517 21.7558 11.5972C21.2232 10.5983 20.4017 9.77672 19.4028 9.24411Z" fill="#0C0012"/>
    <path d="M47.94 19.34H42.38L41.46 22H38.52L43.54 8.02H46.8L51.82 22H48.86L47.94 19.34ZM47.18 17.1L45.16 11.26L43.14 17.1H47.18ZM59.8364 10.76C61.1564 10.76 62.2231 11.18 63.0364 12.02C63.8497 12.8467 64.2564 14.0067 64.2564 15.5V22H61.4564V15.88C61.4564 15 61.2364 14.3267 60.7964 13.86C60.3564 13.38 59.7564 13.14 58.9964 13.14C58.2231 13.14 57.6097 13.38 57.1564 13.86C56.7164 14.3267 56.4964 15 56.4964 15.88V22H53.6964V10.92H56.4964V12.3C56.8697 11.82 57.3431 11.4467 57.9164 11.18C58.5031 10.9 59.1431 10.76 59.8364 10.76ZM73.0591 10.76C74.3791 10.76 75.4457 11.18 76.2591 12.02C77.0724 12.8467 77.4791 14.0067 77.4791 15.5V22H74.6791V15.88C74.6791 15 74.4591 14.3267 74.0191 13.86C73.5791 13.38 72.9791 13.14 72.2191 13.14C71.4457 13.14 70.8324 13.38 70.3791 13.86C69.9391 14.3267 69.7191 15 69.7191 15.88V22H66.9191V10.92H69.7191V12.3C70.0924 11.82 70.5657 11.4467 71.1391 11.18C71.7257 10.9 72.3657 10.76 73.0591 10.76ZM85.0617 22.18C83.9951 22.18 83.0351 21.9467 82.1817 21.48C81.3284 21 80.6551 20.3267 80.1617 19.46C79.6817 18.5933 79.4417 17.5933 79.4417 16.46C79.4417 15.3267 79.6884 14.3267 80.1817 13.46C80.6884 12.5933 81.3751 11.9267 82.2417 11.46C83.1084 10.98 84.0751 10.74 85.1417 10.74C86.2084 10.74 87.1751 10.98 88.0417 11.46C88.9084 11.9267 89.5884 12.5933 90.0817 13.46C90.5884 14.3267 90.8417 15.3267 90.8417 16.46C90.8417 17.5933 90.5817 18.5933 90.0617 19.46C89.5551 20.3267 88.8617 21 87.9817 21.48C87.1151 21.9467 86.1417 22.18 85.0617 22.18ZM85.0617 19.74C85.5684 19.74 86.0417 19.62 86.4817 19.38C86.9351 19.1267 87.2951 18.7533 87.5617 18.26C87.8284 17.7667 87.9617 17.1667 87.9617 16.46C87.9617 15.4067 87.6817 14.6 87.1217 14.04C86.5751 13.4667 85.9017 13.18 85.1017 13.18C84.3017 13.18 83.6284 13.4667 83.0817 14.04C82.5484 14.6 82.2817 15.4067 82.2817 16.46C82.2817 17.5133 82.5417 18.3267 83.0617 18.9C83.5951 19.46 84.2617 19.74 85.0617 19.74Z" fill="#4D47C3"/>
    <path d="M95.6956 19.78H100.296V22H92.8956V8.04H95.6956V19.78ZM110.635 19.34H105.075L104.155 22H101.215L106.235 8.02H109.495L114.515 22H111.555L110.635 19.34ZM109.875 17.1L107.855 11.26L105.835 17.1H109.875ZM124.312 14.84C125.098 14.9867 125.745 15.38 126.252 16.02C126.758 16.66 127.012 17.3933 127.012 18.22C127.012 18.9667 126.825 19.6267 126.452 20.2C126.092 20.76 125.565 21.2 124.872 21.52C124.178 21.84 123.358 22 122.412 22H116.392V8.04H122.152C123.098 8.04 123.912 8.19333 124.592 8.5C125.285 8.80667 125.805 9.23333 126.152 9.78C126.512 10.3267 126.692 10.9467 126.692 11.64C126.692 12.4533 126.472 13.1333 126.032 13.68C125.605 14.2267 125.032 14.6133 124.312 14.84ZM119.192 13.8H121.752C122.418 13.8 122.932 13.6533 123.292 13.36C123.652 13.0533 123.832 12.62 123.832 12.06C123.832 11.5 123.652 11.0667 123.292 10.76C122.932 10.4533 122.418 10.3 121.752 10.3H119.192V13.8ZM122.012 19.72C122.692 19.72 123.218 19.56 123.592 19.24C123.978 18.92 124.172 18.4667 124.172 17.88C124.172 17.28 123.972 16.8133 123.572 16.48C123.172 16.1333 122.632 15.96 121.952 15.96H119.192V19.72H122.012Z" fill="#7067F9"/>
</svg>
